<?xml version="1.0" encoding="UTF-8" standalone="no"?>
<!-- Created with Inkscape (http://www.inkscape.org/) -->

<svg
   width="800"
   height="200"
   viewBox="0 0 211.66666 52.916666"
   version="1.1"
   id="svg1"
   xml:space="preserve"
   inkscape:version="1.3.2 (091e20e, 2023-11-25, custom)"
   sodipodi:docname="TheGlassFeed.svg"
   xmlns:inkscape="http://www.inkscape.org/namespaces/inkscape"
   xmlns:sodipodi="http://sodipodi.sourceforge.net/DTD/sodipodi-0.dtd"
   xmlns="http://www.w3.org/2000/svg"
   xmlns:svg="http://www.w3.org/2000/svg"><sodipodi:namedview
     id="namedview1"
     pagecolor="#ffffff"
     bordercolor="#000000"
     borderopacity="0.25"
     inkscape:showpageshadow="2"
     inkscape:pageopacity="0.0"
     inkscape:pagecheckerboard="0"
     inkscape:deskcolor="#d1d1d1"
     inkscape:document-units="mm"
     inkscape:zoom="1.1002034"
     inkscape:cx="353.11652"
     inkscape:cy="369.47713"
     inkscape:window-width="2560"
     inkscape:window-height="1494"
     inkscape:window-x="-11"
     inkscape:window-y="993"
     inkscape:window-maximized="1"
     inkscape:current-layer="g2" /><defs
     id="defs1" /><g
     inkscape:label="Layer 1"
     inkscape:groupmode="layer"
     id="layer1"><g
       id="g2"
       transform="translate(0.37646595,0.78897967)"><g
         id="g3"><g
           style="fill:#0b2822;stroke-width:3.69347"
           id="g1"
           transform="matrix(2.3878468,0,0,2.3878468,-0.33946017,-2.9848074)"><path
             d="m 14,2.75 c 1.9068,0 3.2615,0.00159 4.2892,0.13976 1.006,0.13527 1.5857,0.38893 2.0089,0.81214 0.4871,0.48714 0.6992,0.86476 0.8166,1.53794 C 21.2471,5.9986 21.25,7.08092 21.25,9 c 0,0.41422 0.3358,0.75 0.75,0.75 0.4142,0 0.75,-0.33578 0.75,-0.75 V 8.90369 C 22.7501,7.1045 22.7501,5.88571 22.5924,4.98199 22.417,3.97665 22.0432,3.32568 21.3588,2.64124 20.6104,1.89288 19.6615,1.56076 18.489,1.40314 17.3498,1.24997 15.8942,1.24998 14.0564,1.25 H 14 c -0.4142,0 -0.75,0.33579 -0.75,0.75 0,0.41421 0.3358,0.75 0.75,0.75 z"
             fill="#1c274c"
             id="path1"
             style="fill:#0b2822;stroke-width:3.69347" /><path
             d="m 2.00001,14.25 c 0.41421,0 0.75,0.3358 0.75,0.75 0,1.9191 0.00288,3.0014 0.13528,3.7602 0.11746,0.6731 0.32948,1.0508 0.81662,1.5379 0.42321,0.4232 1.00285,0.6769 2.00894,0.8121 C 6.73852,21.2484 8.09318,21.25 10,21.25 c 0.4142,0 0.75,0.3358 0.75,0.75 0,0.4142 -0.3358,0.75 -0.75,0.75 H 9.94359 c -1.83776,0 -3.29339,0 -4.43261,-0.1531 C 4.33856,22.4392 3.38961,22.1071 2.64125,21.3588 1.95681,20.6743 1.58304,20.0233 1.40762,19.018 1.24992,18.1143 1.24995,16.8955 1.25,15.0964 L 1.25001,15 c 0,-0.4142 0.33578,-0.75 0.75,-0.75 z"
             fill="#1c274c"
             id="path2"
             style="fill:#0b2822;stroke-width:3.69347" /><path
             d="m 22,14.25 c 0.4142,0 0.75,0.3358 0.75,0.75 v 0.0963 c 10e-5,1.7992 10e-5,3.018 -0.1576,3.9217 -0.1754,1.0053 -0.5492,1.6563 -1.2336,2.3408 -0.7484,0.7483 -1.6973,1.0804 -2.8698,1.2381 C 17.3498,22.75 15.8942,22.75 14.0564,22.75 H 14 c -0.4142,0 -0.75,-0.3358 -0.75,-0.75 0,-0.4142 0.3358,-0.75 0.75,-0.75 1.9068,0 3.2615,-0.0016 4.2892,-0.1398 1.006,-0.1352 1.5857,-0.3889 2.0089,-0.8121 0.4871,-0.4871 0.6992,-0.8648 0.8166,-1.5379 C 21.2471,18.0014 21.25,16.9191 21.25,15 c 0,-0.4142 0.3358,-0.75 0.75,-0.75 z"
             fill="#1c274c"
             id="path3"
             style="fill:#0b2822;stroke-width:3.69347" /><path
             d="M 9.94359,1.25 H 10 c 0.4142,0 0.75,0.33579 0.75,0.75 0,0.41421 -0.3358,0.75 -0.75,0.75 C 8.09319,2.75 6.73852,2.75159 5.71085,2.88976 4.70476,3.02503 4.12512,3.27869 3.70191,3.7019 3.21477,4.18904 3.00275,4.56666 2.88529,5.23984 2.75289,5.9986 2.75001,7.08092 2.75001,9 c 0,0.41422 -0.33579,0.75 -0.75,0.75 -0.41422,0 -0.75,-0.33578 -0.75,-0.75 L 1.25,8.90369 C 1.24995,7.10453 1.24992,5.8857 1.40762,4.98199 1.58304,3.97665 1.95681,3.32568 2.64125,2.64124 3.38961,1.89288 4.33856,1.56076 5.51098,1.40314 6.65019,1.24997 8.10584,1.24998 9.94359,1.25 Z"
             fill="#1c274c"
             id="path4"
             style="fill:#0b2822;stroke-width:3.69347" /><path
             d="m 12,10.75 c -0.6904,0 -1.25,0.5596 -1.25,1.25 0,0.6904 0.5596,1.25 1.25,1.25 0.6904,0 1.25,-0.5596 1.25,-1.25 0,-0.6904 -0.5596,-1.25 -1.25,-1.25 z"
             fill="#1c274c"
             id="path5"
             style="fill:#0b2822;stroke-width:3.69347" /><path
             fill-rule="evenodd"
             clip-rule="evenodd"
             d="M 5.89243,14.0598 C 5.29748,13.3697 5.00001,13.0246 5.00001,12 c 0,-1.0246 0.29747,-1.3697 0.89242,-2.05979 C 7.08038,8.56223 9.07269,7 12,7 14.9273,7 16.9196,8.56222 18.1076,9.94021 18.7025,10.6303 19,10.9754 19,12 19,13.0246 18.7025,13.3697 18.1076,14.0598 16.9196,15.4378 14.9273,17 12,17 9.07269,17 7.08038,15.4378 5.89243,14.0598 Z M 9.25001,12 c 0,-1.5188 1.23119,-2.75 2.74999,-2.75 1.5188,0 2.75,1.2312 2.75,2.75 0,1.5188 -1.2312,2.75 -2.75,2.75 -1.5188,0 -2.74999,-1.2312 -2.74999,-2.75 z"
             fill="#1c274c"
             id="path6"
             style="fill:#0b2822;stroke-width:3.69347" /></g><text
           xml:space="preserve"
           style="font-style:normal;font-variant:normal;font-weight:normal;font-stretch:normal;font-size:17.6389px;line-height:0.84;font-family:'Roboto Mono';-inkscape-font-specification:'Roboto Mono, @wght=500';font-variant-ligatures:normal;font-variant-caps:normal;font-variant-numeric:normal;font-variant-east-asian:normal;font-variation-settings:'wght' 500;text-align:center;letter-spacing:0px;text-anchor:middle;fill:#37c8ab;stroke:#6c5d53;stroke-width:0"
           x="135.5596"
           y="32.193508"
           id="text2"><tspan
             sodipodi:role="line"
             id="tspan2"
             style="fill:#37c8ab;stroke-width:0"
             x="135.5596"
             y="32.193508">The Glass Feed</tspan></text></g></g></g></svg>
